<?xml version="1.0" standalone="no"?>
<!DOCTYPE svg PUBLIC "-//W3C//DTD SVG 20010904//EN"
 "http://www.w3.org/TR/2001/REC-SVG-20010904/DTD/svg10.dtd">
<svg version="1.0" xmlns="http://www.w3.org/2000/svg"
 width="16.000000pt" height="16.000000pt" viewBox="0 0 16.000000 16.000000"
 preserveAspectRatio="xMidYMid meet">
<metadata>
Created by potrace 1.11, written by Peter Selinger 2001-2013
</metadata>
<g transform="translate(0.000000,16.000000) scale(0.002286,-0.002286)"
fill="#000000" stroke="none">
<path d="M3480 6437 c-7 -18 -144 -295 -303 -617 -159 -322 -354 -718 -433
-880 -80 -162 -150 -304 -156 -315 -7 -11 -22 -40 -34 -65 l-22 -46 -268 -38
c-148 -21 -280 -40 -294 -42 -14 -1 -38 -5 -55 -8 -16 -3 -50 -8 -75 -11 -39
-5 -81 -11 -200 -30 -40 -6 -242 -35 -275 -39 -38 -5 -125 -18 -147 -22 -9 -1
-68 -10 -130 -19 -62 -9 -124 -18 -138 -20 -14 -2 -43 -6 -65 -9 -22 -3 -134
-20 -250 -37 -115 -16 -218 -31 -227 -33 -10 -1 -20 -4 -23 -7 -2 -3 101 -109
231 -235 130 -126 280 -272 334 -324 234 -228 688 -670 831 -809 l156 -151
-44 -258 c-24 -141 -46 -268 -48 -282 -7 -48 -56 -326 -70 -405 -8 -44 -17
-98 -20 -120 -13 -83 -15 -101 -20 -125 -3 -14 -8 -36 -10 -50 -3 -14 -8 -41
-11 -60 -2 -19 -9 -57 -14 -85 -5 -27 -12 -66 -15 -85 -7 -41 -16 -97 -21
-125 -7 -33 -36 -209 -39 -232 -2 -12 -6 -36 -10 -53 -4 -17 -8 -41 -10 -53
-1 -12 -5 -38 -9 -57 -3 -19 -8 -46 -10 -60 -2 -14 -7 -43 -11 -64 l-8 -39
169 88 c93 48 196 103 229 120 33 18 128 67 210 110 83 43 179 94 215 113 79
42 213 113 340 179 280 147 341 179 410 216 41 22 139 73 218 114 l143 74 82
-42 c45 -23 105 -54 132 -69 28 -15 109 -58 180 -95 72 -37 159 -84 195 -103
36 -19 117 -61 180 -94 63 -33 146 -77 185 -98 74 -39 212 -112 393 -206 136
-72 273 -144 387 -204 171 -91 188 -100 192 -100 2 0 1 12 -2 27 -2 16 -7 46
-10 68 -6 38 -14 85 -35 198 -5 28 -12 66 -14 82 -3 17 -23 136 -45 265 -22
129 -56 330 -76 445 -20 116 -37 219 -39 230 -4 19 -10 57 -21 120 -3 17 -8
46 -10 65 -3 19 -10 55 -15 80 -5 25 -12 68 -16 95 -4 28 -8 52 -9 55 -2 6
-16 86 -22 120 -2 14 -8 50 -13 80 -5 30 -12 73 -16 95 -3 22 -10 58 -14 80
l-9 40 152 149 c400 390 987 962 1264 1231 78 76 140 142 137 146 -2 4 -12 7
-22 7 -14 -1 -95 11 -262 37 -14 2 -61 9 -105 15 -103 15 -134 19 -165 25 -14
2 -50 7 -80 10 -30 3 -62 8 -70 10 -8 2 -35 6 -60 9 -25 3 -54 8 -65 10 -11 2
-42 7 -70 10 -27 4 -66 10 -85 13 -19 3 -44 7 -55 8 -11 2 -42 6 -70 10 -27 3
-75 10 -105 15 -30 5 -77 12 -105 15 -27 3 -59 8 -70 10 -11 2 -42 7 -70 10
-27 3 -59 8 -70 10 -11 3 -38 7 -60 10 -259 37 -464 67 -480 70 -11 2 -33 4
-48 4 -26 1 -37 21 -244 439 -732 1484 -742 1505 -751 1514 -4 4 -14 -7 -22
-25z"/>
</g>
</svg>
